<svg width="31" height="37" viewBox="0 0 31 37" fill="none" xmlns="http://www.w3.org/2000/svg">
<path d="M15.0112 35.6806L9.35875 32.7063C7.48734 31.7212 5.06214 31.8665 3.49627 33.2936C2.63695 34.0766 2.31231 35.2385 1.77126 36.3941C0.638225 34.8218 0.186287 32.8768 0.370882 30.9761C0.727342 27.3073 3.80817 24.8003 7.44278 24.895C9.4224 24.9456 11.1538 25.3055 12.8661 26.2464L17.3473 28.7091C18.4294 29.3027 19.7661 29.5995 20.95 29.4922C22.4141 29.3595 23.2798 28.3239 23.2479 26.9031C23.2161 25.356 22.0449 24.0047 20.4599 23.4553C17.1436 22.3186 13.8081 21.4788 10.3772 20.5568C6.27156 19.4581 2.06406 17.5826 0.587302 13.2949C-1.61511 6.8981 2.71969 0.337112 7.88835 0.217133L17.0926 0.00243221C18.8177 -0.0354561 20.218 0.368686 21.663 1.25906L27.0671 4.5806C29.4987 6.07719 25.7241 10.0807 23.7126 10.3144C21.4147 10.5796 19.0532 10.5227 16.7298 10.3396C14.2346 10.1376 11.2684 5.87512 8.64583 8.15473C7.44915 9.19666 7.68467 11.1416 8.97683 12.1077C10.269 13.0739 11.7521 13.6233 13.3371 14.0085C16.3734 14.7536 19.276 15.4987 22.2358 16.4902C27.2454 18.1762 31.1664 21.523 30.9946 27.181C30.8673 31.4687 28.2384 35.3333 23.9799 36.5204C21.0455 37.3413 17.7928 37.1393 15.0175 35.6743L15.0112 35.6806ZM18.283 5.351C19.5879 5.48361 20.4663 5.07946 21.3893 4.40379C20.74 3.53236 19.9825 2.72407 18.9004 2.46517C17.9711 2.24416 16.3861 2.37677 16.227 3.43764C16.106 4.25855 17.4045 5.26259 18.283 5.351Z" fill="#053A20"/>
</svg>
