<svg width="393" height="40" viewBox="0 0 393 40" fill="none" xmlns="http://www.w3.org/2000/svg">
<g clip-path="url(#clip0_24_108)">
<path d="M219.534 37.6618C219.298 38.6349 219.241 39.3419 218.806 40L210.924 39.951L208.092 28.1201L205.225 16.8142L201.131 33.8535L199.647 39.958H191.751L182 1.11901L191.18 1.042L196.073 23.7237L201.188 1.056L209.405 1.10501L214.619 23.4577L219.377 1.06301L228.478 1.09801L219.534 37.6618Z" fill="#053A20"/>
<path d="M298.253 30.2903C298.246 34.3016 295.535 37.2768 292.169 38.8589C290.507 39.384 288.852 39.972 287.09 39.972H271.939L271.918 1.056L286.847 1C288.06 1 289.287 1.35003 290.492 1.56004C294.872 2.75013 298.31 6.43942 298.303 11.0598L298.26 30.2903H298.253ZM289.508 28.7711L289.43 11.0388C289.422 8.7986 287.411 7.34949 285.385 7.36349L280.813 7.39149V33.7345L285.328 33.7205C286.262 33.7205 287.689 33.2655 288.324 32.5934C289.244 31.6204 289.508 30.2132 289.501 28.7711H289.508Z" fill="#053A20"/>
<path d="M388.956 23.3877L378.056 23.4367L378.064 33.7205L393 33.7485L392.936 39.965L369.119 39.944L369.126 1.014L392.815 1.035L392.843 7.35649L378.049 7.37749L378.056 16.9752L388.941 17.0172L388.956 23.3877Z" fill="#053A20"/>
<path d="M362.293 17.1362L362.25 23.6607L351.55 23.7097L351.451 39.951L342.606 39.979L342.599 1.028L365.502 1.014L365.538 7.37749L351.5 7.37049V17.0522L362.293 17.1362Z" fill="#053A20"/>
<path d="M268.501 33.7275V39.958L245.99 39.979V1.07701L254.892 1.10501V33.7275H268.501Z" fill="#053A20"/>
<path d="M325.009 33.7345L324.873 39.979L302.583 39.986L302.561 1.06301L311.349 1.028L311.392 33.7135L325.009 33.7345Z" fill="#053A20"/>
<path d="M240.64 39.825L231.767 39.965L231.76 1.042L240.647 1.028L240.64 39.825Z" fill="#053A20"/>
<path d="M337.313 39.839L328.511 39.972L328.518 1.028L337.334 1.05601L337.313 39.839Z" fill="#053A20"/>
</g>
<g clip-path="url(#clip1_24_108)">
<path d="M36.1798 34.4397L34.986 39.4133L27.5249 39.3723L21.9901 16.6468L16.7198 39.3519L10.4185 39.4747C9.68593 39.4883 9.12974 39.0585 8.9873 38.2603L0 1.11888L8.58033 1.03019L13.3487 23.4351L18.1984 1.03019L25.8631 1.0643L30.8417 23.21L35.4133 1.00972L44.0072 1.0643L36.1798 34.4397Z" fill="#053A20"/>
<path d="M147.968 38.5468L141.945 35.3334C139.951 34.2691 137.367 34.4261 135.698 35.9679C134.782 36.8139 134.436 38.0692 133.86 39.3178C132.653 37.619 132.171 35.5177 132.368 33.4641C132.747 29.5003 136.03 26.7917 139.903 26.8941C142.013 26.9487 143.858 27.3375 145.682 28.3541L150.458 31.0148C151.611 31.6561 153.035 31.9768 154.297 31.8608C155.857 31.7175 156.779 30.5987 156.745 29.0636C156.711 27.3921 155.463 25.9321 153.774 25.3386C150.24 24.1105 146.686 23.2031 143.03 22.2071C138.655 21.02 134.172 18.9937 132.598 14.3612C130.251 7.45011 134.87 0.361589 140.378 0.231963L150.193 -5.59361e-07C152.031 -0.0409352 153.523 0.395701 155.063 1.35767L160.822 4.94627C163.413 6.56319 159.391 10.8886 157.247 11.1411C154.799 11.4276 152.282 11.3662 149.806 11.1683C147.147 10.95 143.987 6.34487 141.192 8.80778C139.917 9.93348 140.168 12.0348 141.545 13.0786C142.922 14.1225 144.502 14.716 146.191 15.1322C149.427 15.9372 152.52 16.7423 155.674 17.8134C161.012 19.635 165.19 23.2509 165.007 29.3638C164.871 33.9962 162.07 38.1716 157.532 39.4542C154.405 40.3411 150.939 40.1228 147.982 38.54L147.968 38.5468ZM151.461 5.77861C152.852 5.92188 153.788 5.48525 154.771 4.75524C154.08 3.81375 153.272 2.94047 152.119 2.66075C151.129 2.42197 149.44 2.56524 149.271 3.71141C149.142 4.59833 150.525 5.6831 151.461 5.77861Z" fill="#053A20"/>
<path d="M128.515 29.5139C128.515 33.6619 125.883 36.9299 122.39 38.4718C120.572 39.0653 118.849 39.4542 116.937 39.4474L103.737 39.4064L103.71 1.03701L117.411 1.02337C119.412 1.02337 121.223 1.56234 123.048 2.33328C126.073 3.99796 128.495 6.94525 128.495 10.6226L128.515 29.5139ZM120.213 29.2547L120.199 10.9091C120.199 8.82142 118.49 7.17039 116.489 7.18404L112.121 7.22497V33.3004L116.577 33.2594C118.673 33.239 120.213 31.4447 120.213 29.2615V29.2547Z" fill="#053A20"/>
<path d="M92.8168 38.9562C88.781 40.3957 84.4467 40.3343 80.5941 38.8334C76.7414 37.3324 74.6251 34.2419 74.2996 30.3258L74.3131 9.64694C74.7744 5.39656 77.752 2.0672 81.8692 1.02337C89.1405 -0.825515 98.2295 1.1257 99.464 9.89255V30.0802C99.1316 34.1054 96.7644 37.5439 92.8168 38.9493V38.9562ZM91.0465 30.1075L91.0329 10.4383C91.0329 7.98226 88.9099 6.72011 86.8139 6.77469C84.5281 6.83609 82.7442 8.2074 82.7442 10.6362V29.6094C82.7442 32.3316 85.0911 33.8734 87.5669 33.546C89.4661 33.2935 90.6938 32.2224 91.0532 30.1143L91.0465 30.1075Z" fill="#053A20"/>
<path d="M63.9218 38.8197C59.7435 40.4503 54.9209 40.3752 50.9529 38.5332C47.5751 36.964 45.4791 33.9144 45.201 30.2917L45.2485 9.63329C45.5605 6.72011 47.1274 4.31861 49.481 2.63346C53.6864 -0.375234 61.7309 -0.409347 66.0923 2.72898C68.6562 4.57786 70.162 7.17039 70.3723 10.3633L70.3926 28.8931C70.3926 33.2662 68.2153 37.1482 63.9218 38.8197ZM61.9344 29.7322V10.3974C61.9276 7.90721 59.8113 6.61095 57.5798 6.72011C55.6399 6.81562 53.6932 7.98908 53.6864 10.1996L53.6525 29.8277C53.6525 32.2224 55.6467 33.6142 57.8104 33.6005C59.9741 33.5869 61.9344 32.2702 61.9344 29.739V29.7322Z" fill="#053A20"/>
</g>
<defs>
<clipPath id="clip0_24_108">
<rect width="211" height="39" fill="white" transform="translate(182 1)"/>
</clipPath>
<clipPath id="clip1_24_108">
<rect width="165" height="40" fill="white"/>
</clipPath>
</defs>
</svg>
